<svg id="Layer_1" enable-background="new 0 0 512 512" height="512" viewBox="0 0 512 512" width="512" xmlns="http://www.w3.org/2000/svg"><g><path d="m174.212 265.458c-21.345-21.334-56.078-21.336-77.427.003-.104.104-.208.21-.31.318-.762.773-1.499 1.566-2.209 2.375v-76.421c0-26.084-21.104-47.133-47.133-47.133h-32.133c-8.284 0-15 6.716-15 15v192.8c0 3.979 1.58 7.793 4.394 10.606l92.006 92.007v41.987c0 8.284 6.716 15 15 15h112.466c8.284 0 15-6.716 15-15v-127.393c0-25.464-9.916-49.404-27.919-67.406zm34.654 216.542h-82.466v-33.2c0-3.978-1.58-7.793-4.394-10.606l-92.006-92.007v-171.587h17.134c9.46 0 17.133 7.647 17.133 17.133v112.467c0 3.978 1.58 7.793 4.394 10.606l64.266 64.266s.001.001.001.001c5.856 5.859 15.354 5.857 21.213 0 5.858-5.858 5.858-15.355 0-21.213l-.505-.506c.505.506-35.656-35.663-35.656-35.663-9.679-9.675-9.67-25.325 0-34.991.074-.074.147-.149.22-.225 9.669-9.446 25.223-9.379 34.8.194l36.732 36.74c12.34 12.34 19.136 28.747 19.136 46.197v112.394z"/><path d="m383.467 89.322v-54.378c0-6.697-4.439-12.583-10.878-14.422l-28.721-8.203c-57.483-16.425-118.253-16.426-175.732-.001l-28.725 8.204c-6.438 1.84-10.878 7.726-10.878 14.422v54.378c0 80.337 47.711 152.696 121.55 184.343 1.867.8 3.878 1.213 5.909 1.213h.016c2.031 0 4.042-.413 5.909-1.213 73.839-31.647 121.55-104.006 121.55-184.343zm-127.467 154.107c-59.424-28.157-97.467-87.951-97.467-154.107v-43.062l17.841-5.095c52.092-14.885 107.16-14.885 159.256.001l17.837 5.094v43.062c0 66.156-38.043 125.95-97.467 154.107z"/><path d="m293.594 84.727-45.627 45.627-21.527-21.527c-5.857-5.857-15.355-5.858-21.213 0s-5.858 15.355 0 21.213l32.134 32.133c2.929 2.929 6.768 4.393 10.606 4.393s7.678-1.464 10.606-4.394l56.233-56.233c5.858-5.858 5.858-15.355 0-21.213-5.857-5.857-15.355-5.857-21.212.001z"/><path d="m497 144.6h-32.134c-26.028 0-47.133 21.049-47.133 47.133v76.421c-.71-.809-1.447-1.602-2.209-2.375-.102-.108-.205-.214-.31-.318-21.349-21.339-56.082-21.337-77.427-.003l-36.735 36.743c-18.003 18.002-27.919 41.942-27.919 67.406v127.393c0 8.284 6.716 15 15 15h112.467c8.284 0 15-6.716 15-15v-41.987l92.007-92.007c2.813-2.813 4.394-6.628 4.394-10.606v-192.8c-.001-8.284-6.717-15-15.001-15zm-15 201.587-92.007 92.007c-2.813 2.813-4.394 6.628-4.394 10.606v33.2h-82.466v-112.393c0-17.451 6.796-33.857 19.136-46.197l36.732-36.74c9.577-9.574 25.131-9.641 34.8-.194.072.076.146.15.22.225 9.67 9.666 9.679 25.316 0 34.991 0 0-36.161 36.169-35.656 35.663l-.505.506c-5.858 5.858-5.858 15.355 0 21.213 5.858 5.857 15.356 5.858 21.213 0 0 0 .001 0 .001-.001l64.266-64.266c2.813-2.813 4.394-6.628 4.394-10.606v-112.468c0-9.486 7.673-17.133 17.133-17.133h17.133z"/></g></svg>